# xmcd CD database file
#
# Track frame offsets:
#	150
#	22075
#	43054
#	65136
#	82136
#	102315
#	126291
#	148178
#	172056
#
# Disc length: 2605 seconds
#
# Revision: 0
# Processed by: cddbd v1.5.1PL2 Copyright (c) Steve Scherf et al.
# Submitted via: CDex 1.51
#
DISCID=8d0a2b09
DTITLE=Willie Rosario - 30TH  Aniversario
DYEAR=1989
DGENRE=Salsa
TTITLE0=Bella Amante
TTITLE1=Cuando Quieras
TTITLE2=Dona Alicia
TTITLE3=Amor Verdadero
TTITLE4=Cualquier Cancion
TTITLE5=Fisico
TTITLE6=Vacio
TTITLE7=Quiero Tenerte
TTITLE8=Aqui Ante Ustedes
EXTD=YEAR: 1989
EXTT0=
EXTT1=
EXTT2=
EXTT3=
EXTT4=
EXTT5=
EXTT6=
EXTT7=
EXTT8=
PLAYORDER=
